<?xml version="1.0" standalone="no"?>
<!DOCTYPE svg PUBLIC "-//W3C//DTD SVG 20010904//EN"
 "http://www.w3.org/TR/2001/REC-SVG-20010904/DTD/svg10.dtd">
<svg version="1.0" xmlns="http://www.w3.org/2000/svg"
 width="161.000000pt" height="161.000000pt" viewBox="0 0 161.000000 161.000000"
 preserveAspectRatio="xMidYMid meet">
<metadata>
Created by potrace 1.14, written by Peter Selinger 2001-2017
</metadata>
<g transform="translate(0.000000,161.000000) scale(0.100000,-0.100000)"
fill="#000000" stroke="none">
<path d="M312 1456 c-73 -25 -104 -105 -61 -160 31 -39 75 -56 112 -44 39 14
91 86 76 104 -18 22 -44 16 -67 -16 -26 -34 -52 -39 -69 -11 -26 41 13 82 70
74 113 -16 204 -105 261 -256 20 -54 30 -91 53 -197 1 -8 5 -44 9 -80 3 -36 7
-80 8 -98 2 -18 0 -34 -3 -37 -8 -4 -118 -12 -268 -20 -64 -3 -94 -1 -101 8
-18 22 -44 140 -45 211 -2 69 -2 69 28 78 94 26 183 37 200 24 8 -6 16 -24 19
-41 2 -16 7 -49 11 -72 l7 -43 -49 -1 c-95 -3 -106 -5 -117 -22 -9 -14 -7 -21
7 -32 11 -7 27 -12 37 -10 10 2 44 5 76 6 33 1 72 7 87 12 25 8 27 13 23 46
-3 20 -8 56 -11 81 -8 63 -25 113 -44 128 -38 30 -298 -12 -328 -54 -26 -36
-7 -224 32 -318 28 -68 29 -68 310 -51 161 9 177 12 185 25 9 15 6 150 -5 225
-26 184 -99 366 -177 443 -77 78 -196 121 -266 98z"/>
<path d="M1191 1454 c-166 -43 -270 -189 -326 -463 -21 -101 -32 -296 -16
-305 17 -11 38 -14 176 -21 72 -3 161 -8 198 -10 61 -4 71 -2 92 19 28 28 51
99 67 210 13 93 5 151 -22 166 -70 37 -293 61 -320 34 -15 -15 -38 -105 -46
-181 -6 -59 -5 -63 18 -71 12 -5 48 -10 78 -11 30 -2 66 -4 80 -5 32 -3 60 11
60 29 0 25 -30 32 -138 34 l-34 1 5 48 c10 83 18 110 38 115 18 5 173 -23 210
-38 22 -8 18 -84 -10 -209 -20 -87 -19 -85 -124 -81 -152 7 -259 15 -267 20
-19 12 16 268 51 376 47 143 108 225 201 269 59 28 108 31 135 8 18 -15 13
-58 -10 -72 -14 -9 -23 -5 -52 26 -51 54 -92 31 -55 -30 23 -38 62 -64 95 -64
39 0 92 46 99 86 17 91 -71 148 -183 120z"/>
<path d="M291 571 c-25 -27 -41 -66 -57 -141 -3 -14 -8 -63 -11 -110 -3 -63
-1 -90 9 -103 30 -40 269 -83 317 -58 28 15 47 59 55 126 4 28 9 67 12 87 3
21 0 39 -6 43 -6 4 -41 9 -78 11 -37 3 -81 6 -99 8 -39 4 -62 -17 -47 -42 11
-16 22 -18 118 -21 l48 -1 -7 -47 c-13 -97 -23 -122 -48 -118 -12 2 -44 6 -70
10 -26 3 -71 13 -98 21 l-51 15 6 66 c8 82 33 192 48 210 8 10 34 12 112 8
185 -10 249 -15 253 -19 6 -6 4 -145 -2 -176 -18 -86 -18 -98 4 -109 40 -22
60 42 67 216 5 125 0 132 -89 134 -76 2 -134 5 -260 13 l-98 7 -28 -30z"/>
<path d="M1167 594 c-1 -1 -58 -5 -127 -8 -147 -8 -173 -10 -189 -20 -8 -5
-10 -44 -7 -135 5 -142 21 -201 55 -201 29 0 34 15 21 70 -13 53 -20 209 -10
215 7 4 101 12 253 20 l107 6 15 -34 c20 -49 33 -116 39 -205 l4 -52 -52 -14
c-58 -16 -95 -24 -148 -30 -32 -4 -37 -2 -47 22 -6 15 -13 53 -16 85 l-6 57
38 1 c68 2 110 6 122 13 30 19 -3 57 -44 50 -11 -1 -52 -5 -91 -7 -39 -2 -77
-8 -83 -12 -12 -7 -11 -22 4 -140 8 -60 30 -107 54 -117 23 -9 125 -6 176 6
78 17 136 40 146 57 34 64 -21 329 -75 364 -15 10 -43 14 -80 13 -32 -2 -58
-3 -59 -4z"/>
</g>
</svg>
