<svg xmlns="http://www.w3.org/2000/svg" xml:space="preserve" style="enable-background:new 0 0 64 65.3" viewBox="0 0 64 65.3"><path d="M34.5 19.1V13c0-.3.3-.6.6-.6s.6.3.6.6v6.1c0 .3-.3.6-.6.6-.4 0-.6-.3-.6-.6zm3.6.6c.3 0 .6-.3.6-.6V16c0-.3-.3-.6-.6-.6s-.6.3-.6.6v3.1c0 .3.3.6.6.6zm-6.1 0c.3 0 .6-.3.6-.6V16c0-.3-.3-.6-.6-.6s-.6.3-.6.6v3.1c0 .3.3.6.6.6zm-4.9 8.6c0-4.4 3.6-8 8-8s8 3.6 8 8-3.6 8-8 8-8-3.6-8-8zm4.1.6h-.7c-.3 0-.6.3-.6.6s.3.6.6.6h1.1c1.1 2.2 3.9 3.1 6.1 2 .2-.1.4-.2.6-.4.3-.2.3-.6.1-.9-.2-.3-.6-.3-.8-.1-.6.4-1.2.6-1.9.6-1 0-1.9-.4-2.6-1.2h1.8c.3 0 .6-.3.6-.6s-.3-.6-.6-.6h-2.4c-.1-.4-.1-.8 0-1.2h3c.3 0 .6-.3.6-.6s-.3-.6-.6-.6H33c.6-.8 1.6-1.2 2.6-1.2.7 0 1.4.2 1.9.6.3.2.7.1.9-.1s.1-.7-.1-.9c-2-1.5-4.9-1-6.3 1-.1.2-.3.4-.4.6h-1.1c-.3 0-.6.3-.6.6s.3.6.6.6h.7c-.1.4-.1.8 0 1.2zm-15.8 6.8h-2.5c-.3 0-.6.3-.6.6v14.8c0 .3.3.6.6.6H16V36.3c0-.3-.3-.6-.6-.6zm34.7 1c-.9-.5-2.1-.5-3 .1l-5.3 3.3c.3 2.4-1.4 4.5-3.8 4.8h-9.7c-.3 0-.6-.3-.6-.6s.3-.6.6-.6h9.2c1.7 0 3.1-1.4 3.1-3.1s-1.4-3.1-3.1-3.1h-7.7c-.9-1.2-2.3-1.8-3.8-1.8h-3.6c-1.5 0-2.9.7-3.8 1.8h-1.5v12.3h5.5c.7 0 1.3.3 1.8.7.7.7 1.7 1.1 2.7 1.1H32c2.2 0 4.3-.6 6.1-1.8l12.3-8c.8-.6 1.3-1.5 1.3-2.5 0-1.1-.6-2.1-1.6-2.6z"/></svg>