<svg xmlns="http://www.w3.org/2000/svg" xml:space="preserve" style="enable-background:new 0 0 64 64" viewBox="0 0 64 64"><path d="M43.4 16.6 34.1 10c-1-.7-2.3-.7-3.2 0l-9.4 6.6c-1.3.9-1.6 2.6-.7 3.9.7 1.1 2.1 1.4 3.2 1v8.6c0 .5.4.9.9.9h15c.5 0 .9-.4.9-.9v-6.6c0-.5-.4-.9-.9-.9s-.9.5-.9 1v5.6h-3.7v-3.7c0-.5-.4-.9-.9-.9h-3.7c-.5 0-.9.4-.9.9v3.7h-3.7v-8.8l6.6-4.6 7.7 5.4c.5.3 1 .5 1.6.5.9 0 1.8-.4 2.3-1.2.7-1.3.4-3-.9-3.9zm-11.9 9.8h1.9v2.8h-1.9v-2.8zm11.1-7c-.3.4-.9.5-1.3.2L33 13.9c-.2-.1-.3-.2-.5-.2s-.4.1-.5.2l-8.3 5.8c-.4.3-1 .2-1.3-.2-.3-.4-.2-1 .2-1.3l9.4-6.6c.3-.2.8-.2 1.1 0l9.4 6.6c.3.2.4.8.1 1.2zM41.8 56.3c-.2 0-.5-.1-.7-.3-.2-.2-.3-.6-.2-.9l1.1-3.7c0-.2.1-.3.2-.4l13.5-13.5c1.1-1.1 2.9-1.1 4 0 .5.5.8 1.2.8 2s-.3 1.5-.8 2L46.2 55c-.1.1-.2.2-.4.2l-3.7 1.1h-.3zm3.8-2zm-1.8-2.2-.6 1.9 1.9-.5 13.3-13.3c.2-.2.3-.4.3-.7 0-.2-.1-.5-.3-.7-.4-.4-1-.4-1.3 0L43.8 52.1zM42.8 41.4H22.2c-1.5 0-2.8-1.3-2.8-2.8v-.9c0-1.5 1.3-2.8 2.8-2.8h20.6c1.5 0 2.8 1.3 2.8 2.8v.9c0 1.5-1.3 2.8-2.8 2.8zm-20.6-4.7c-.5 0-.9.4-.9.9v.9c0 .5.4.9.9.9h20.6c.5 0 .9-.4.9-.9v-.9c0-.5-.4-.9-.9-.9H22.2zM37.2 56.3h-9.4c-.5 0-.9-.4-.9-.9s.4-.9.9-.9h9.4c.5 0 .9.4.9.9s-.4.9-.9.9zM39 47H25.9c-.5 0-.9-.4-.9-1s.4-.9.9-.9H39c.5 0 .9.4.9.9s-.4 1-.9 1zM39 50.7H25.9c-.5 0-.9-.4-.9-.9s.4-.9.9-.9H39c.5 0 .9.4.9.9s-.4.9-.9.9z"/><path d="M52.1 39.4c.5 0 .9-.4.9-.9V11.4c0-.2-.1-.5-.3-.7l-8.4-8.4c-.2-.2-.4-.3-.7-.3h-29c-1.5 0-2.8 1.3-2.8 2.8v54.3c0 1.5 1.3 2.8 2.8 2.8h35.6c1.5 0 2.8-1.3 2.8-2.8v-7.4c0-.5-.4-.9-.9-.9s-.9.4-.9.9v7.4c0 .5-.4.9-.9.9H14.7c-.5 0-.9-.4-.9-.9V4.9c0-.5.4-.9.9-.9h28.1v5.6c0 1.5 1.3 2.8 2.8 2.8h2.8c.5 0 .9-.4.9-.9s-.4-.9-.9-.9h-2.8c-.5 0-.9-.4-.9-.9V5.2l6.6 6.6v26.7c-.1.5.3.9.8.9z"/></svg>