<svg xmlns="http://www.w3.org/2000/svg" xml:space="preserve" style="enable-background:new 0 0 451.5 391.3" viewBox="0 0 451.5 391.3"><path d="M328.3 385.8c24.1 0 43.8-19.9 43.8-44V327c3.3-.1 7-.4 10.9-.8 14.3-1.5 31.6-3.8 44.6-16.7 12.9-12.9 15.1-30.3 16.6-44.6 1.5-14.3.9-26.3.9-26.3-.5-7.4-6.4-13.3-13.8-13.7 0 0-12.1-.7-26.3.8-14.3 1.5-31.5 3.8-44.5 16.7-2.7 2.7-5 5.7-6.9 8.7-10.7-8.5-23.2-9.9-33.7-11-11.7-1.2-21.5-.6-21.5-.6-7.5.4-13.4 6.3-13.8 13.8 0 0-.6 9.8.7 21.5 1.2 11.7 2.9 26.1 14.3 37.5 11.4 11.4 25.7 12.9 37.3 14.1 2.1.2 4.1.4 6.1.5v14.9c0 8.3-6.3 14.7-14.6 14.7h-51.2v-73.2c0-16-13.3-29.3-29.3-29.3H204c-16 0-29.3 13.3-29.3 29.3v73.2h-22c-.1-7-.5-15.9-1.5-25.5-2.3-22.1-6.5-48.5-24.2-66.1-5.4-5.4-11.5-9.4-18.1-12.7v-78.8l116.5-91c39.2 30.3 78.3 60.7 117.5 91v36.7c0 8.1 6.6 14.6 14.7 14.6 8 0 14.5-6.5 14.6-14.6v-14l5 3.9c6.4 5 15.7 3.9 20.6-2.6 4.9-6.4 3.7-15.6-2.7-20.5-53.5-41.6-107-83-160.7-124.6-5.3-4.1-12.7-4.1-17.9 0l-10.3 8.1c-10-23.7-33.5-40.3-60.7-40.3-7.9 0-15.6 1.4-22.9 4.1-11-11.8-26.5-18.8-43-18.8-32.1 0-58.5 26.4-58.5 58.5 0 5.8.9 11.5 2.6 17.1-10.9 10.9-17.3 25.8-17.3 41.5 0 32.1 26.4 58.5 58.5 58.5h14.7v62.4c-6.4-1.1-12.7-1.9-18.7-2.5-22.1-2.3-40.6-1.3-40.6-1.3-7.5.4-13.4 6.3-13.8 13.8 0 0-1.1 18.7 1.2 40.7s6.7 48.3 24.3 66c17.7 17.7 43.9 22 66 24.3 16.8 1.8 31.6 1.7 37.7 1.5l192.6-.1zM50.3 63.9c0-16.1 12.5-28.9 28.9-29.3 10.8 0 20.4 5.6 26 15.2 4.7 7.5 13.7 9.5 20.6 5.2 5.9-3.7 12.6-5.7 19.5-5.7 18.3 0 33.2 13 36.1 30.3l-43.3 33.8V93.2c0-8.1-6.6-14.6-14.7-14.6-8 0-14.5 6.5-14.6 14.6v20.2l-8.1-4c-3.5-1.7-7.5-2-11.2-.7-3.7 1.2-6.7 3.9-8.4 7.3-3.5 7.2-.6 16 6.6 19.5l13.5 6.8-12 9.4H64.9c-16.3 0-29.3-13-29.3-29.3 0-10 5.2-19.2 13.6-24.6 6.6-4.2 8.6-12.8 4.9-19.5-2.4-4.4-3.8-9.3-3.8-14.4zm160.2 73.3c-15.6.4-28.5 13.5-28.5 29.3v29.1c-8.1 0-14.6 6.6-14.6 14.7 0 8 6.6 14.6 14.6 14.6h87.8c8 0 14.6-6.5 14.6-14.6s-6.5-14.7-14.6-14.7v-29.1c0-16-13.3-29.3-29.3-29.3h-30zm.7 29.2h29.3v29.1h-29.3v-29.1zm204.2 88.2c-.1 3.2.2 3.4-.2 7.3-1.2 11.7-5.6 24.2-8.3 26.9s-15.2 7.1-26.9 8.3c-4 .4-4.2.1-7.5.2.1-3.2-.2-3.4.2-7.3 1.2-11.7 5.6-24.2 8.3-26.9s15.3-7.1 27-8.3c2.6-.3 5.5-.1 7.4-.2zM57.9 269.9c19.5 2 40.9 8.4 48.4 15.9 7.4 7.4 13.8 28.9 15.9 48.4v.4l-32.3-32.4c-2.8-2.7-6.5-4.3-10.4-4.2-3.9 0-7.6 1.5-10.4 4.2-5.7 5.7-5.7 15 0 20.7l32.3 32.3c-.2 0-.3 0-.5-.1-19.5-2-40.9-8.3-48.4-15.7-7.4-7.4-13.7-28.9-15.8-48.4-1.2-11.8-.8-15.2-.8-21.8 7.8-.5 15.7.2 22 .7zm256.2-.7c1.4.1 1.2 0 2.7.1 9.1 1 18.6 4.5 19.8 5.7 1.2 1.2 4.9 10.8 5.8 19.9.1 1.4 0 1.3.1 2.6-1.4-.1-1.3 0-2.7-.1-9.1-1-18.6-4.7-19.7-5.8-1.2-1.2-4.9-10.7-5.9-19.7-.1-1.5 0-1.4-.1-2.7zm-110.2 14.1h43.9v73.2h-43.9v-73.2z"/></svg>