<svg xmlns="http://www.w3.org/2000/svg" xml:space="preserve" style="enable-background:new 0 0 451.5 391.3" viewBox="0 0 451.5 391.3"><path d="M38.8 364.8c-2.4 2.4-3.7 5.6-3.7 8.9 0 7 5.7 12.7 12.8 12.7h356c7 0 12.6-5.7 12.7-12.7v-50.9c0-7-5.7-12.6-12.7-12.7v-38.2c0-7-5.7-12.6-12.7-12.7h-12.8V221c0-6.8-5.4-12.3-12.2-12.6v-66.5l5 3.9c5.5 4.3 13.5 3.3 17.8-2.2 4.3-5.6 3.3-13.6-2.3-17.9C336 86.1 284.8 47 233.8 7.6c-2.3-1.8-5-2.6-7.7-2.6s-5.4.9-7.7 2.6c-51.2 39.2-102.2 78.6-153 118.1-5.6 4.3-6.6 12.3-2.3 17.9 4.3 5.5 12.3 6.5 17.8 2.2l4.9-3.8v144.8c-2 2.7-3.8 5.5-5.6 8.5-15.6 30.2-21 48.8-41.4 69.5zM238.5 43.3l32.7 25.2h-32.7V43.3zm-25.4.4v24.8h-25.4v-5.2l25.4-19.6zm0 177.3c0-13.9-11.5-25.4-25.4-25.4h-38.1c-13.9 0-25.4 11.5-25.4 25.4v39.8c-4.5 1-8.8 2.6-12.8 4.5V122.2L162.2 83v49.1c0 3.9 1.8 7.5 4.8 10l63.5 50.9c2.3 1.8 5.1 2.7 8 2.7h102.2v12.8h-51.3c-7 0-12.7 5.6-12.8 12.7v38.2h-38.1c-7 0-12.7 5.6-12.8 12.7v38.2H213V221zM187.6 94H213v25.4h-25.4V94zm50.9 0h38.1v25.4h-38.1V94zm63.5 0h2.1l33 25.4H302V94zm-63.5 50.9h38.1v25.4h-33.7l-4.4-3.6v-21.8zm63.5 0h38.7v25.4H302v-25.4zM187.6 221l.7 53.2c-10.2-8.6-23.1-14.5-38.4-15h-.4V221h38.1zM302 233.8h50.9v25.4H302v-25.4zM211.5 361h-137c11.4-16.9 17.9-34 28.1-53.5 7.9-13.6 18.2-22.4 34.3-22.9h12.3c16 .5 26.4 9.2 34.3 23.1 3.6 7 6.8 13.7 10 20.4 5.6 11.7 10.8 22.3 18 32.9zm39.7-76.3H302v25.4h-50.9v-25.4zm76.3 0H378.4v25.4h-50.9v-25.4zm-165.3 25.4c-7.1 0-12.8 5.7-12.8 12.8 0 7 5.7 12.7 12.8 12.7 7 0 12.6-5.7 12.7-12.7 0-7.1-5.7-12.8-12.7-12.8zm-38.1 12.7c-7.1 0-12.8 5.7-12.8 12.8 0 7 5.7 12.7 12.8 12.7 7 0 12.6-5.7 12.7-12.7 0-7.1-5.7-12.8-12.7-12.8zm101.7 12.8H264V361h-20.3c-7.7-8.4-13.1-16.5-17.9-25.4zm63.6 0h50.9V361h-50.9v-25.4zm76.3 0h25.4V361h-25.4v-25.4z"/></svg>