<svg xmlns="http://www.w3.org/2000/svg" xml:space="preserve" style="enable-background:new 0 0 98 97.2" viewBox="0 0 98 97.2"><path d="m93.7 37.5-6.2 6.2-19.3-19.3c-5.2-5.2-11.3-5.1-16.8.3l-9.9 9.9c-.8.8-1.8 1.2-2.9 1.2-2.3 0-4.1-1.8-4.1-4.1 0-1.1.4-2.1 1.2-2.9l15.2-15.2c3.4-3.5 8.1-5.4 13-5.4h17.2c1.4 0 2.5-1.1 2.5-2.5s-1.1-2.5-2.5-2.5H63.9c-5.3 0-10.4 1.7-14.5 5-2.3-2.2-5.3-3.5-8.5-3.8-3.3-.1-6.6 1.2-8.9 3.6l-.8.8L26.4 4c-1-1-2.6-1-3.5 0s-1 2.6 0 3.5l6.5 6.5c1 1 2.6 1 3.5 0l2.6-2.6c1.3-1.4 3.2-2.1 5.1-2 1.9.2 3.7 1 5.1 2.3L32.2 25.3c-3.6 3.6-3.5 9.3 0 12.9 1.7 1.7 4 2.7 6.4 2.7 2.4 0 4.7-.9 6.4-2.7l9.9-9.9c3.5-3.5 6.4-3.6 9.7-.3l23.3 23.3c1.6 1.6 1.6 4.2 0 5.8-.8.8-1.8 1.2-2.9 1.2-1.1 0-2.1-.4-2.9-1.2L74 49c-1-1-2.5-1-3.5 0s-1 2.5 0 3.5l.1.1L83 64.9c1.6 1.6 1.6 4.2 0 5.8-1.6 1.6-4.2 1.6-5.8 0l-.9-.8-.3-.3-9.7-9.5c-1-1-2.6-.9-3.5.1-.9 1-.9 2.5 0 3.5l9.8 9.6c1.6 1.6 1.5 4.2-.1 5.8-1.6 1.6-4.2 1.5-5.8-.1l-.2-.1-.3-.3-6.6-6.6c-1-1-2.6-1-3.5 0s-1 2.6 0 3.5l6.6 6.6c1.6 1.5 1.7 4 .2 5.7-.8.8-1.9 1.3-3 1.3s-2.1-.4-2.9-1.2l-4.6-4.6c-.3-.3-.6-.5-1-.6 2-4.6-.2-9.9-4.8-11.9-1.1-.5-2.2-.7-3.4-.7v-.8c0-5-4-9.1-9.1-9.1h-.3V60c0-5-4.1-9.1-9.1-9.1h-.3v-.2c0-5-4.1-9.1-9.1-9.1-2.3 0-4.4.8-6.1 2.4l-5.1-5.1c-1-1-2.6-1-3.5 0s-1 2.6 0 3.5l5.1 5.1-1.4 1.4c-3.6 3.5-3.6 9.3 0 12.9 1.3 1.3 3 2.2 4.8 2.5-1.5 4.8 1.2 9.9 5.9 11.4 1.8.6 3.7.6 5.5 0 .8 4.3 4.6 7.4 8.9 7.4.7 0 1.5-.1 2.2-.3.7 4.5 4.5 7.8 9 7.8 2.4 0 4.7-1 6.4-2.7l1.4-1.4c.1.1.2.3.3.4l4.6 4.6c1.7 1.7 4 2.7 6.4 2.7 4.9 0 8.9-3.9 9-8.8h.7c4.8 0 8.7-3.7 9.1-8.4.4.1.9.1 1.3.1 5 0 9.1-4.1 9.1-9.1 0-1.7-.5-3.4-1.4-4.9 4.8-1.5 7.5-6.5 6.1-11.4-.4-1.4-1.2-2.7-2.3-3.8l-.3-.6 6.2-6.2c1-1 1-2.6 0-3.5s-2.5-1.1-3.5-.1zM7.9 52.3l4.7-4.6c1.5-1.7 4.1-1.7 5.8-.2s1.7 4.1.2 5.8l-.2.2-1.1 1.1-3.6 3.6c-1.7 1.5-4.3 1.4-5.8-.2-1.5-1.7-1.4-4.2 0-5.7zm7 17.4c-1.6-1.6-1.6-4.2 0-5.8l2.3-2.3 3.5-3.5 1.1-1.1c1.6-1.6 4.2-1.6 5.8 0 1.6 1.6 1.6 4.2 0 5.8l-.6.7-4 4-2.3 2.3c-1.6 1.5-4.2 1.5-5.8-.1zm14.6 8.2c-2.3 0-4.1-1.8-4.1-4.1 0-1.1.4-2.1 1.2-2.9l4.1-4.1.6-.6c1.5-1.7 4.1-1.7 5.8-.2 1.7 1.5 1.7 4.1.2 5.8l-.2.2-.5.5-2.3 2.3-1.8 1.8c-.8.8-1.9 1.3-3 1.3zm16.4 4-2.3 2.3c-.8.8-1.8 1.2-2.9 1.2-2.3 0-4.1-1.8-4.1-4.1 0-1.1.4-2.1 1.2-2.9l2.3-2.3c1.7-1.5 4.2-1.5 5.8.2 1.5 1.6 1.5 4 0 5.6z"/></svg>