<svg xmlns="http://www.w3.org/2000/svg" xml:space="preserve" style="enable-background:new 0 0 50 49.9" viewBox="0 0 50 49.9"><path d="M21.5 35.5c-4-4.4-1.4-11.8 4.6-12.2h.6c3 0 5.7 1.6 7.2 3.9 1.5-2.4 4.2-3.9 7.2-3.9h.6c6 .4 8.7 7.8 4.6 12.2L34.8 48.1c-.4.5-1.2.5-1.7 0L21.5 35.5zM47.1 22.5 25 3.8 2.9 22.5c-.4.4-1.1.3-1.4-.1-.4-.4-.3-1.1.1-1.4L24.4 1.7c.4-.3.9-.3 1.3 0L48.4 21c.4.4.5 1 .1 1.4-.3.4-1 .5-1.4.1z"/><path d="M42.6 21.3v.1c-.2 0-.5-.1-.8-.1h-.7c-2.7 0-5.3 1-7.2 2.8-1.9-1.8-4.5-2.8-7.2-2.8H26c-3.5.2-6.4 2.4-7.7 5.7-1.4 3.4-.7 7.2 1.8 9.9l6.9 7.5H8.4c-.6 0-1-.4-1-1V21.3L25 6.4l17.6 14.9z"/></svg>