<svg xmlns="http://www.w3.org/2000/svg" xml:space="preserve" style="enable-background:new 0 0 8.5 8.5" viewBox="0 0 8.5 8.5"><path d="M.9 4.4.3 6.9v.3c0 .6.5 1.1 1.1 1.1H8c.2 0 .3-.1.3-.3l-.6-3.3c0-.1-.1-.2-.3-.2H6.3c.2-.3.3-.6.5-.8.2-.5.3-.8.3-1.2 0-1.2-1-2.2-2.3-2.2s-2.2 1-2.2 2.2c0 .4.1.7.3 1.1.1.3.3.6.5.8h-.5c-.1-.4-.6-.7-1-.7-.3 0-.6.1-.8.3-.1.1-.2.3-.2.4zm4-3.6c1 0 1.7.8 1.7 1.7 0 .2-.1.5-.3.9-.1.4-.4.8-.6 1.2-.4.6-.7.8-.8 1-.2-.2-.4-.4-.8-1-.2-.4-.5-.8-.6-1.2-.2-.3-.3-.7-.3-.9 0-.9.7-1.7 1.7-1.7zm0 .3c-.1 0-.1 0-.1.1-.4.2-.8.5-1.1.8-.1.1-.1.3 0 .4 0 0 .2.1.3 0v.8c0 .1.1.3.3.3h1.3c.1 0 .3-.1.3-.3v-.8c.1.1.3 0 .3-.1.1-.1.1-.3 0-.4-.4-.2-.8-.5-1.1-.8h-.2zm0 .6.4.3v.9h-.8V2l.4-.3zm-3 2.5c.3 0 .5.2.5.5L2 6.4c-.2-.2-.4-.3-.7-.3H1l.4-1.6c0-.1.3-.3.5-.3zm1 .8h.9c.1.2.3.4.4.5h-.9c-.2.1-.3.2-.3.3 0 .2.1.3.3.3h.1l-.2.5h-.1c-.1 0-.3.1-.3.3 0 .1.2.2.3.2h3.6c.2 0 .3-.1.2-.3l-.1-1c0-.1-.1-.2-.3-.2h-.9c.1-.2.3-.4.4-.6h1.2l.4 2.6H1.3c-.3.1-.5-.2-.5-.5s.2-.5.5-.5.5.2.5.5c0 .1.1.3.3.3.1 0 .2-.1.3-.2L2.9 5zm1 1.1h.6c.1.1.1.2.1.2.1.1.3.1.4 0 0 0 .1-.1.1-.2h.1v.5H3.8l.1-.5zm1.9 0h.5l.1.5h-.6v-.5z"/></svg>