<?xml version="1.0" encoding="UTF-8"?>
<svg version="1.1" viewBox="0 0 1200 1200" xmlns="http://www.w3.org/2000/svg">
 <path d="m825.1 1050c-73.969 0-147.74-12.469-220.31-37.266-194.86-66.562-350.95-222.66-417.56-417.52-35.297-103.31-45.562-209.06-30.469-314.26 10.828-75.844 73.453-130.97 148.92-130.97h99.562c44.859 0 87.234 19.641 116.3 53.906 27.797 32.766 39.75 75.562 32.812 117.23-2.9062 17.578-4.4062 35.672-4.4062 53.812 0 18.891 1.5938 37.641 4.8281 55.688 5.3438 30.281-2.7188 60.891-22.172 84.094-11.391 13.594-26.062 23.672-42.422 29.484 43.781 86.953 119.58 153.1 211.82 184.78 4.1719-20.156 14.438-38.812 29.578-53.062 19.922-18.797 45.938-28.312 72.984-26.578 24.281 1.3594 50.156 0.23438 74.156-3.7969 41.531-6.9375 84.422 4.9688 117.28 32.812 34.219 29.062 53.906 71.484 53.906 116.34v99.516c0 75.469-55.078 138.14-131.02 149.02-31.172 4.5-62.484 6.75-93.797 6.75zm-519.42-800.02c-25.219 0-46.219 18.984-49.969 45.141-12.797 89.438-4.0312 179.53 26.156 267.74 56.672 165.79 189.47 298.6 355.26 355.26 88.172 30.141 178.26 39.047 267.71 26.156 26.156-3.7031 45.188-24.75 45.188-50.016v-99.516c0-15.422-6.7969-30.047-18.609-40.031-6.0469-5.2031-18.844-13.219-36.141-10.5-31.312 5.1562-64.172 6.75-96.469 4.9688l1.2188 43.734c0 14.812-6.5625 28.828-17.906 38.344-11.297 9.5156-26.297 13.594-40.875 10.875-175.92-31.359-317.76-156.84-370.26-327.47-4.6875-15.141-1.8281-31.641 7.5938-44.391 9.4219-12.75 24.328-20.297 40.219-20.297h38.25c-4.875-25.688-6.9844-50.297-6.9844-75 0-23.625 1.9219-47.25 5.7656-70.219 2.8594-17.297-5.3438-30.094-10.5-36.188-10.031-11.812-24.609-18.562-40.031-18.562zm544.31 300c0-110.3-89.719-200.02-200.02-200.02-27.609 0-50.016 22.406-50.016 50.016s22.406 50.016 50.016 50.016c55.125 0 99.984 44.859 99.984 99.984 0 27.609 22.359 50.016 50.016 50.016s50.016-22.406 50.016-50.016zm200.02 0c0-220.55-179.44-399.98-399.98-399.98-27.609 0-50.016 22.406-50.016 50.016s22.406 50.016 50.016 50.016c165.42 0 300 134.58 300 300 0 27.609 22.359 50.016 50.016 50.016 27.609-0.046875 49.969-22.453 49.969-50.062z"/>
</svg>
