<svg xmlns="http://www.w3.org/2000/svg" xml:space="preserve" style="enable-background:new 0 0 451.5 391.3" viewBox="0 0 451.5 391.3"><path d="M278.6 12.038c-26.9 0-49 22-49 49v173.8c-19.1 14.5-32.6 36.5-32.6 62.9 0 8.8 1.4 17.2 4 25.1-8.6 2.1-16.2 10.3-16.2 19.8v.3c.2 6.6 2.4 11 4.3 15.3 2 4.3 4.1 8.2 5.1 10.2 2 4.1 6.4 6.8 11 6.8s9-2.7 11-6.8c2.3-4.4 4.1-7.9 6-11.9 14.7 14.1 34.6 22.8 56.5 22.8 44.9 0 81.6-36.6 81.6-81.6 0-26.4-13.5-48.4-32.6-62.9v-59.6c.1-6.5-5.8-12.4-12.2-12.4-6.5 0-12.3 5.9-12.2 12.4v65.3c0 4.1 2.3 8.1 5.7 10.3 16.4 10.4 26.9 26.5 26.9 46.8 0 31.8-25.4 57.1-57.1 57.1s-57.1-25.4-57.1-57.1c0-20.3 10.5-36.4 26.9-46.8 3.5-2.2 5.7-6.2 5.7-10.3v-179.6c0-14.1 10.4-24.5 24.5-24.5 14 0 24.5 10.4 24.5 24.5v73.5c-.1 6.5 5.8 12.4 12.2 12.4s12.3-5.9 12.2-12.4v-73.5c-.1-26.9-22.1-48.9-49.1-48.9zm-74.4 4c-4.2.3-8.1 3-9.9 6.8-1 2-3.1 5.9-5.1 10.2-2 4.3-4.2 8.7-4.3 15.3v.4c0 10.9 10.3 20.4 20.4 20.4 4.7 0 9.9-1.4 14-5.2s6.5-9.9 6.4-15.4c-.1-6.8-2.4-11-4.3-15.3-2-4.3-4.1-8.3-5.1-10.3-2.3-4.5-7.3-7.3-12.1-6.9zm-110.1 53.1c-7.5.5-13.1 9.1-10.7 16.2 1.7 5.1 3.9 13.3 10.8 20.7h.1c2.5 2.6 5.3 5.5 10.6 7.1 2.7.8 6.3 1.3 9.9.1 3.4-1.6 4.7-3.1 6.8-5.1 3.5-3.4 7.2-10.4 5.5-16.1-1.4-5.5-4.3-8.6-7.3-11.4l-.3-.3c-7.4-7.1-15.4-8.9-20.7-10.7-1.4-.4-3-.6-4.7-.5zm184.4 3.8c-6.5.1-12.2 6-12.1 12.5v164.9c-21 5.5-36.7 24.6-36.7 47.3 0 26.9 22.1 49 49 49s49-22.1 49-49c0-22.7-15.7-41.8-36.7-47.3v-164.9c0-6.5-5.9-12.5-12.5-12.5zm72.3.3c-6.4.3-11.9 6.5-11.6 12.9.3 6.4 6.5 11.9 12.9 11.6H397c6.5.1 12.4-5.8 12.4-12.2 0-6.5-5.9-12.3-12.4-12.2-15.3-.1-31-.1-46.2-.1zm-140.5 12.1c-.7 0-1.4 0-2 .1-58.8 4.7-105.1 54.4-105.1 114.3 0 46.8 28.1 87.4 68.5 105.1 5.9 2.6 13.6-.4 16.2-6.2 2.6-5.9-.4-13.6-6.2-16.2-31.7-13.9-53.9-45.7-53.9-82.6 0-47.3 36.4-86.2 82.6-89.9 6.4-.1 12.1-5.9 12.1-12.2-.1-6.5-5.8-12.3-12.2-12.4zm140.5 20.5c-6.4.3-11.9 6.5-11.6 12.9.3 6.4 6.5 11.9 12.9 11.6h20.4c6.5.1 12.4-5.8 12.4-12.2s-5.9-12.3-12.4-12.2c-7.2-.1-14.6-.1-21.7-.1zm0 36.8c-6.4.3-11.9 6.5-11.6 12.9.3 6.4 6.5 11.9 12.9 11.6H397c6.5.1 12.4-5.8 12.4-12.2 0-6.5-5.9-12.3-12.4-12.2-15.3-.1-31-.1-46.2-.1zm-276.3 32.6c-6.8.1-11 2.2-15.3 4.2s-8.3 4.2-10.3 5.2c-4.1 2-6.8 6.4-6.8 11 0 4.5 2.7 9 6.8 11 2 1 5.8 3.1 10.1 5.1s8.8 4.2 15.4 4.3h.3c11 0 20.4-10.3 20.4-20.4 0-4.7-1.4-9.9-5.2-14-3.9-4.2-9.9-6.5-15.4-6.4zm276.3 0c-6.4.3-11.9 6.5-11.6 12.9.3 6.4 6.5 11.9 12.9 11.6h20.4c6.5.1 12.4-5.8 12.4-12.2 0-6.5-5.9-12.3-12.4-12.2-7.2-.1-14.6-.1-21.7-.1zm0 32.7c-6.4.3-11.9 6.5-11.6 12.9.3 6.4 6.5 11.9 12.9 11.6H397c6.5.1 12.4-5.8 12.4-12.2 0-6.5-5.9-12.3-12.4-12.2-15.3-.1-31-.1-46.2-.1zm-72.2 65.3c13.7 0 24.5 10.8 24.5 24.5s-10.8 24.5-24.5 24.5-24.5-10.8-24.5-24.5c.1-13.7 10.9-24.5 24.5-24.5zm-170.6 4.2c-.7 0-1.4.1-2 .3-5.4 1.3-9.3 4.8-12 7.8-5.4 5.5-8.2 13.3-10.6 20.5-1.4 4.3-.2 9.3 3 12.5 3.2 3.2 8.3 4.4 12.6 2.9 8.4-3.1 14.4-5.8 19.8-10.2 3.7-2.3 7.8-8.1 8.7-12.1 1.1-7-1.5-12.8-5.1-15.8-3.6-3.3-10-6.4-14.4-5.9z"/></svg>