<svg xmlns="http://www.w3.org/2000/svg" xml:space="preserve" style="enable-background:new 0 0 100 100.4" viewBox="0 0 100 100.4"><path d="M72 25.4c-1.2-7.3-5.8-13.3-12.2-16.5l.9 11.2c.1 1-.6 1.8-1.6 1.9H59c-.9 0-1.7-.7-1.8-1.6L56 5.3c-4-.9-8-.9-12 0l-1.3 15.2c-.1 1-.9 1.7-1.9 1.6-1-.1-1.7-.9-1.6-1.9L40.1 9c-6.4 3.1-11 9.2-12.2 16.5h-4.7v7.1c8.8.7 17.8 1.1 26.7 1.1 8.9 0 17.9-.4 26.7-1.1v-7.1H72zM50 38.4c-6.8 0-13.6-.2-20.4-.6 0 .8 0 1.6.1 2.3.5 6.9 5 17.1 8.5 22.7 3.6 5.8 11.8 5.7 11.8 5.7s8.2.1 11.8-5.7c3.5-5.6 8.1-15.8 8.6-22.7.1-.7.1-1.5.1-2.3-6.9.4-13.7.6-20.5.6zM18.6 68.8c-.4.1-.9.3-1.3.4-5.1 1.7-8.9 6.3-10.7 11.5-1.3 3.5-2 6.8-2.3 9.4-.1.5-.1 1-.2 1.4.1 2.2 1.9 3.9 4.1 3.9h10.5l-.1-26.6z"/><path d="M72 66.2c-2.2-.5-4.2-.9-5.9-1.2-.1.1-.1.3-.2.4-4.8 7.7-14.8 8-15.9 8-1.1 0-11.1-.2-15.9-8-.1-.1-.1-.3-.2-.4-1.7.3-3.7.7-5.9 1.2v29.2h44V66.2zM95.7 90.1c-.4-2.6-1.1-5.9-2.3-9.4-1.9-5.1-5.7-9.7-10.7-11.5-.4-.1-.9-.3-1.3-.4v26.6h10.5c2.2 0 4-1.7 4.1-3.9-.1-.5-.2-1-.3-1.4z"/></svg>