<svg xmlns="http://www.w3.org/2000/svg" xml:space="preserve" style="enable-background:new 0 0 512 513" viewBox="0 0 512 513"><path d="m172.1 289.1-40-24c-2.5-1.5-5.7-1.5-8.2 0l-40 24c-2.4 1.4-3.9 4-3.9 6.9v32c0 4.4 3.6 8 8 8h80c4.4 0 8-3.6 8-8v-32c0-2.8-1.5-5.4-3.9-6.9z"/><path d="M472 176h-24v-72c0-3.2-1.9-6.1-4.8-7.3l-184-80c-2-.9-4.3-.9-6.4 0l-184 80C65.9 98 64 100.9 64 104v158l-44.2 27.2c-2.4 1.5-3.8 4-3.8 6.8v192c0 4.4 3.6 8 8 8h208c2.1 0 4.2-.8 5.7-2.3 3.2 1.5 6.8 2.3 10.3 2.3h208v-16H248c-4.4 0-8-3.6-8-8V200c0-4.4 3.6-8 8-8h64v16h-48c-4.4 0-8 3.6-8 8v240c0 4.4 3.6 8 8 8h112v-16H272V224h40v8c0 4.4 3.6 8 8 8h80c4.4 0 8-3.6 8-8v-8h40v136h16V216c0-4.4-3.6-8-8-8h-48v-16h64c4.4 0 8 3.6 8 8v256h16V200c0-13.2-10.8-24-24-24zm-192 0v-64h-48v70.1c-5.1 4.5-8 11-8 17.9v8h-64c-4.4 0-8-3.6-8-8v-96c0-4.4 3.6-8 8-8h192c4.4 0 8 3.6 8 8v40c-5.6 0-11.1 1.5-16 4.3V112h-48v64h-16zm-56 304h-48V360c0-4.4-3.6-8-8-8H88c-4.4 0-8 3.6-8 8v120H32V300.5l96-59.1 96 59.1V480zm168-256h-64v-35.1l11.6-5.8c2.7-1.4 4.4-4.1 4.4-7.2 0-8.8 7.2-16 16-16s16 7.2 16 16c0 3 1.7 5.8 4.4 7.2l11.6 5.8V224z"/><path d="M456 400c0-26.5-21.5-48-48-48s-48 21.5-48 48 21.5 48 48 48c8 0 15.9-2 22.9-5.8l51.5 51.5 11.3-11.3-50.1-50.1c8-8.9 12.4-20.4 12.4-32.3zM346.3 250.3 312 284.7l-10.3-10.3-11.3 11.3 16 16c3.1 3.1 8.2 3.1 11.3 0l40-40-11.4-11.4zM368 264h64v16h-64zM346.3 306.3 312 340.7l-10.3-10.3-11.3 11.3 16 16c3.1 3.1 8.2 3.1 11.3 0l40-40-11.4-11.4zM368 312h64v16h-64zM301.7 386.3l-11.3 11.3 16 16c3.1 3.1 8.2 3.1 11.3 0l40-40-11.3-11.3-34.4 34.4-10.3-10.4zM168 112h48v80h-48z"/></svg>