<svg xmlns="http://www.w3.org/2000/svg" xml:space="preserve" id="Layer_1" x="0" y="0" style="enable-background:new 0 0 512 512.9" version="1.1" viewBox="0 0 512 512.9"><style>.st0{fill:none}</style><path d="M167.3 260.5h23.6V110.2c0-9.5 7.8-17.5 17.5-17.5h119.8l.2-17.9-31.8.2H167.9l-.6 185.5z" class="st0"/><path d="M150.4 75.9c0-9.7 7.8-17.7 17.5-17.7h119.8l.2-18.1-160.2.4-.6 219.9h23.4V75.9z" class="st0"/><path d="M476.7 270.4c-4.6-6.1-12.4-9.9-20.8-9.9h-54.1V109.8c0-9.5-7.6-17.3-17-17.3H345l.2-17.7c0-9.1-7.6-16.6-16.8-16.6h-23.8l.2-17.7c.2-4.4-1.5-8.6-4.6-12-3.2-3.2-7.4-5.1-12-5.1l-160.4.2c-9.7 0-17.5 7.8-17.5 17.5v219.3H56.2c-8.4 0-16.2 3.8-20.8 9.9-4 5.3-5.5 11.8-3.8 17.9L80 471.1c2.5 10.3 12.8 17.3 24.6 17.3h302.9c11.8 0 21.9-6.9 24.6-17.3l48.4-182.9c1.7-6 .2-12.5-3.8-17.8zm-334.3 137c0-4.6 3.8-8.4 8.6-8.4h209.8c4.8 0 8.4 3.8 8.4 8.4 0 4.6-3.6 8.4-8.4 8.4H151.1c-4.9.1-8.7-3.7-8.7-8.4zm248.8-57.2H120.8c-4.6 0-8.4-3.8-8.4-8.4 0-4.6 3.8-8.4 8.4-8.4h270.5c4.6 0 8.4 3.8 8.4 8.4 0 4.6-3.8 8.4-8.5 8.4zm-23.8-190.5h-82.1c-4.6 0-8.4-3.8-8.4-8.4 0-4.6 3.8-8.4 8.4-8.4h82.1c4.6 0 8.4 3.8 8.4 8.4.1 4.6-3.7 8.4-8.4 8.4zm8.5 58.5c0 4.6-3.8 8.4-8.4 8.4h-87.6c-4.6 0-8.4-3.8-8.4-8.4 0-4.6 3.8-8.4 8.4-8.4h87.6c4.6 0 8.4 3.8 8.4 8.4zM276.3 137l-33.5 40c-1.5 1.9-4 2.9-6.3 2.9h-.2c-2.3 0-4.6-1.1-6.3-2.9l-10.5-12.4c-3.2-3.6-2.7-8.8.8-11.8 3.6-3.2 8.8-2.7 12 .8l4 4.8 26.9-32.2c2.9-3.6 8.4-4 12-1.1 3.4 3 4.1 8.3 1.1 11.9zm-56 77.2c3.6-3.2 8.8-2.7 12 .8l4 4.8 26.9-32.2c2.9-3.6 8.4-4 12-1.1 3.4 2.9 4 8.2 1.1 11.8l-33.5 40c-1.7 1.9-5.1 2.9-6.5 2.9-2.3 0-4.6-1.1-6.3-2.9L219.5 226c-3.2-3.6-2.8-8.8.8-11.8zm76.2-139.1 31.8-.2-.2 17.9H208.3c-9.7 0-17.5 8-17.5 17.5v150.3h-23.6l.6-185.4 128.7-.1zM127.7 40.6l160.2-.4-.2 18.1H167.9c-9.7 0-17.5 8-17.5 17.7v184.6H127l.7-220z"/></svg>