<svg xmlns="http://www.w3.org/2000/svg" xml:space="preserve" style="enable-background:new 0 0 100 100.2" viewBox="0 0 100 100.2"><path d="M5273.1 2400.1v-2c0-2.8-5-4-9.7-4s-9.7 1.3-9.7 4v2c0 1.8.7 3.6 2 4.9l5 4.9c.3.3.4.6.4 1v6.4c0 .4.2.7.6.8l2.9.9c.5.1 1-.2 1-.8v-7.2c0-.4.2-.7.4-1l5.1-5c1.3-1.3 2-3.1 2-4.9zm-9.7-.1c-4.8 0-7.4-1.3-7.5-1.8.1-.5 2.7-1.8 7.5-1.8s7.3 1.3 7.5 1.8c-.2.5-2.7 1.8-7.5 1.8z"/><path d="M5268.4 2410.3c-.6 0-1 .4-1 1s.4 1 1 1h4.3c.6 0 1-.4 1-1s-.4-1-1-1h-4.3zM5272.7 2413.7h-4.3c-.6 0-1 .4-1 1s.4 1 1 1h4.3c.6 0 1-.4 1-1s-.4-1-1-1zM5272.7 2417h-4.3c-.6 0-1 .4-1 1s.4 1 1 1h4.3c.6 0 1-.4 1-1 0-.5-.4-1-1-1zM50 26.1c-13.2 0-23.9 10.7-23.9 23.9S36.8 73.9 50 73.9 73.9 63.2 73.9 50 63.2 26.1 50 26.1zm1.6 18.5c1.1 0 2 .9 2 2s-.9 2-2 2h-8c-.1.5-.1.9-.1 1.4s.1 1 .1 1.5h8c1.1 0 2 .9 2 2s-.9 2-2 2h-6.7c1.5 2.7 3.9 4.5 6.8 4.5 1.8 0 3.6-.7 5-2.1 1-.9 2.6-.9 3.5.1s.9 2.6-.1 3.5c-2.3 2.2-5.3 3.4-8.4 3.4-5.5 0-10.2-3.9-12.1-9.4H37c-1.1 0-2-.9-2-2s.9-2 2-2h1.8c0-.5-.1-1-.1-1.5s.1-1 .1-1.4H37c-1.1 0-2-.9-2-2s.9-2 2-2h2.6c1.9-5.5 6.6-9.4 12.1-9.4 3.1 0 6.1 1.2 8.4 3.5 1 .9 1 2.5.1 3.5s-2.5 1-3.5.1c-1.4-1.4-3.2-2.1-5-2.1-2.8 0-5.3 1.8-6.8 4.5l6.7-.1z"/><path d="M96.4 52.3c1.5-1.1 1.5-3.4 0-4.5l-8.2-6.1c-1.1-.8-1.4-2.2-.9-3.4l4.1-9.4c.8-1.7-.4-3.7-2.3-3.9l-10.2-1.2c-1.3-.2-2.3-1.2-2.5-2.5L75.1 11c-.2-1.9-2.2-3-3.9-2.3l-9.4 4.1c-1.2.5-2.6.1-3.4-.9l-6.1-8.2c-1.1-1.5-3.4-1.5-4.5 0l-6.1 8.2c-.8 1.1-2.2 1.4-3.4.9l-9.4-4.1c-1.9-.7-3.8.4-4 2.3l-1.2 10.2c-.2 1.3-1.2 2.3-2.5 2.5L11 24.9c-1.9.2-3 2.2-2.3 3.9l4.1 9.4c.5 1.2.1 2.6-.9 3.4l-8.2 6.1c-1.5 1.1-1.5 3.4 0 4.5l8.2 6.1c1.1.8 1.4 2.2.9 3.4l-4.1 9.4c-.7 1.9.4 3.8 2.3 4l10.2 1.2c1.3.2 2.3 1.2 2.5 2.5L24.9 89c.2 1.9 2.2 3 3.9 2.3l9.4-4.1c1.2-.5 2.6-.1 3.4.9l6.1 8.2c1.1 1.5 3.4 1.5 4.5 0l6.1-8.2c.8-1.1 2.2-1.4 3.4-.9l9.4 4.1c1.7.8 3.7-.4 3.9-2.3l1.2-10.2c.2-1.3 1.2-2.3 2.5-2.5L89 75.1c1.9-.2 3-2.2 2.3-3.9l-4.1-9.4c-.5-1.2-.1-2.6.9-3.4l8.3-6.1zM50 79.9c-16.5 0-29.9-13.4-29.9-29.9S33.5 20.1 50 20.1 79.9 33.5 79.9 50 66.5 79.9 50 79.9z"/></svg>