<svg xmlns="http://www.w3.org/2000/svg" xml:space="preserve" style="enable-background:new 0 0 8.5 8.4" viewBox="0 0 8.5 8.4"><path d="M3.6.4c-.1 0-.3.1-.3.3v.4l-.2.2s-.1.1-.1.2v1.1c-.1 0-.3.1-.3.3.1 0 .2.1.3.1h2.4c.1 0 .3-.1.3-.3 0-.1-.1-.3-.3-.3v-.9c0-.1 0-.2-.1-.2L4.4.5c-.1-.1-.2-.1-.3 0l-.3.2c0-.2-.1-.3-.2-.3zm.6.6.7.6v.9h-.4v-.2c0-.2-.1-.3-.3-.3-.1 0-.2.1-.2.3v.3h-.4v-1l.6-.6zM1 3.2.4 4.8c-.1.3 0 .6.3.7l.8.3c.2.1.3 0 .5 0l.4.3c-.3.3-.2.7 0 1l.7.7c.3.3.7.3 1 0l.2.1c.3.2.8.2 1.1-.1l.7-.9c.2-.2.2-.6.1-.8l.3-.3c.1.1.3.1.5 0l.8-.3c.3-.1.4-.4.3-.7l-.6-1.6c-.1-.2-.4-.4-.7-.3l-.8.4c-.2.1-.3.2-.4.4-.3.2-.6.2-1 .4h-.8l-1-.4c0-.2-.1-.4-.3-.4l-.8-.4h-.2c-.3 0-.5.1-.5.3zm.5.2c.1 0 .6.2.8.3l-.6 1.6L.9 5c.2-.5.5-1.4.6-1.6zM7.6 5l-.8.3-.6-1.5.8-.4c.2.6.4 1.1.6 1.6zm-4.9-.8 1 .4H4l-.3.3c-.1.1-.1.2 0 .3l.2.3c.2.3.7.4 1.1.2l.7.6c.1.1.1.2 0 .3l-.7.9c-.1.1-.2.1-.4 0h-.1l.1-.1c.1-.1.1-.3 0-.4L3.2 5.6c-.1-.1-.2-.1-.3 0l-.2.1-.5-.3.5-1.2zm3.1 0 .5 1.1-.4.4-.7-.5c-.1-.1-.2-.1-.3 0h-.1c-.2.1-.4.1-.5 0l-.1-.1.6-.5m-2 2.1c-.1-.1-.1-.2 0-.3l.3-.2 1 1-.2.2c-.1.1-.3.1-.4 0l-.7-.7z"/></svg>