<svg xmlns="http://www.w3.org/2000/svg" xml:space="preserve" style="enable-background:new 0 0 8.5 8.5" viewBox="0 0 8.5 8.5"><path d="M7.4 5.3v-.6l.4-.4c.2-.3.2-.8-.1-1.2l-.3-.4.1-.5c.1-.5-.3-.9-.7-1l-.6-.1-.3-.5C5.7.2 5.1.1 4.7.3l-.5.2-.4-.2C3.6.2 3.5.2 3.4.2c-.3 0-.6.2-.8.5l-.3.4-.5.1c-.5.1-.8.5-.7 1l.1.5-.5.4c-.3.4-.3.9 0 1.2l.4.4-.1.6c0 .2 0 .5.2.6L.6 7c-.1.2-.1.4 0 .5s.3.2.5.2l.3-.1.1.3c.1.2.2.3.4.4s.4-.1.5-.3l.5-.8c.2.1.5.2.8 0l.5-.2.5.2c.3.1.6.1.8 0l.6.8c.1.2.3.3.5.2.2 0 .4-.2.4-.4v-.2l.3.1c.2.1.4 0 .5-.2.2-.1.2-.3.1-.5l-.6-1.1c.1-.2.2-.4.1-.6zM4.3 6.5h-.2l-.6.3c-.2 0-.4 0-.5-.2L2.7 6c0-.1-.1-.1-.2-.1l-.7-.1c-.2 0-.3-.2-.3-.4l.1-.7c0-.1 0-.2-.1-.2L1.1 4c-.1-.2-.1-.4 0-.5l.5-.5c.1-.1.1-.1.1-.2l-.1-.7c0-.2.1-.4.3-.4l.6-.1c.1 0 .1-.1.2-.1L3 .9c.1-.1.2-.2.3-.2h.2l.6.3h.2l.6-.3c.2-.1.4 0 .5.2l.3.6c0 .1.1.1.2.1l.6.1c.2 0 .3.2.3.4v.7c0 .1 0 .2.1.2l.4.5c.1.1.1.4 0 .5l-.4.5c-.1 0-.1.1-.1.2l.1.7c0 .2-.1.4-.3.4l-.6.1c-.1 0-.2.1-.2.1l-.3.6c-.1.2-.3.2-.5.2l-.7-.3zm0-5c-.1 0-.1 0-.2.1l-.4.2c0-.1-.1-.3-.3-.3-.1 0-.3.1-.3.3v.5c-.1.1-.2.2-.4.3-.1.1-.1.3-.1.4.1.1.2.1.3.1v.8c-.1 0-.2.1-.2.3 0 .1.1.3.3.3h2.6c.1 0 .3-.1.3-.3 0-.1-.1-.3-.3-.3v-.8c.1 0 .2 0 .3-.1.1-.1 0-.3-.1-.4l-.3-.2-1.1-.8c0-.1-.1-.1-.1-.1zm0 .6.8.6v1.2h-.3l-.2-.4c0-.1-.1-.1-.2-.1h-.3c-.1 0-.2 0-.2.1l-.2.4h-.2V2.7l.8-.6zM2.1 3.4c-.1 0-.2.1-.2.2s.1.3.3.3c.1 0 .3-.1.3-.3-.1-.1-.2-.2-.4-.2zm4.3 0c-.1 0-.3.1-.3.3 0 .1.1.3.3.3.1 0 .3-.1.3-.3-.1-.2-.2-.3-.3-.3zm-4 1.3c-.1 0-.3.1-.3.3 0 .1.1.3.3.3h2.4c.1 0 .3-.1.3-.3 0-.1-.1-.3-.3-.3H2.4zm3.2 0c-.1 0-.3.1-.3.3 0 .1.1.3.3.3h.5c.1 0 .3-.1.3-.3 0-.1-.1-.3-.3-.3h-.5zm-2.4.8c-.1 0-.3.1-.3.3 0 .1.2.2.3.2h.3c.1 0 .3-.1.3-.3 0-.1-.1-.3-.3-.3h-.3zm1.1 0c-.2 0-.3.1-.3.2 0 .2.1.3.3.3h1.1c.1 0 .3-.1.3-.3 0-.1-.1-.3-.3-.3H4.3zm-2.7.7h.1l.5.1.2.4-.4 1-.1-.4.1-.2c.1-.1 0-.3-.1-.4h-.2c-.1 0-.1.1-.2.1l-.1.3-.3.1.5-1zm5.3 0 .5.9H7l-.1-.3c0-.1-.1-.1-.2-.1h-.2c-.1.1-.1.3-.1.4l.1.2v.4L6 6.8l.2-.4.5-.1c.1 0 .1-.1.2-.1z"/></svg>